<?xml version="1.0" encoding="UTF-8"?>
<svg id="Layer_2" data-name="Layer 2" xmlns="http://www.w3.org/2000/svg" viewBox="0 0 605.42 1012.6">
  <defs>
    <style>
      .cls-1 {
        fill: #231f20;
        stroke-width: 0px;
      }
    </style>
  </defs>
  <g id="Abjuration">
    <path class="cls-1" d="m302.71,1012.6c-26.78-114.94-36.53-232.99-41.81-350.55-5.76-155.98-1.34-312.63,20.11-467.4,5.69-39.22,12.09-78.18,21.7-116.85,4.93,19.48,8.78,38.95,12.34,58.43,23.77,134.94,31.55,272.17,31.79,408.98-.12,97.53-4.48,195.09-15.2,292.13-6.75,58.87-14.89,117.5-28.93,175.28h0Z"/>
    <path class="cls-1" d="m73.73,709.53c36.87-10.17,74.89-15.31,112.75-19.08,103.3-8.85,207.94-6.86,309.78,13.97,9.38,2.03,18.76,4.25,28.14,7.08-9.4,2.75-18.8,4.89-28.2,6.83-102.02,19.94-206.67,21.01-309.89,11.26-37.83-4.1-75.8-9.57-112.58-20.06h0Z"/>
    <path class="cls-1" d="m73.04,868.93c36.87-10.17,74.89-15.31,112.75-19.08,103.3-8.85,207.94-6.86,309.78,13.97,9.38,2.03,18.76,4.25,28.14,7.08-9.4,2.75-18.8,4.89-28.2,6.83-102.02,19.94-206.67,21.01-309.89,11.26-37.83-4.1-75.8-9.57-112.58-20.06h0Z"/>
    <path class="cls-1" d="m604.77,27.31c-20.35-7.83-71.76-28.21-87.87-7.99-18.47,23.19,11.69,107.42,19.46,136.83,23.83,82.75,51.02,169.53,35.44,257.2-18.27,97.98-94.8,149.82-187.44,169.32-26.72,5.79-54.56,9.13-81.55,10.75,0,0-.18-102.34-.18-102.34,20.88,1.39,41.14,1.65,61.71.28,48.64-3.34,99.34-17.06,127.2-57.59,24.58-35.59,29.27-81.97,28.9-125.06-.65-47.71-8.54-97.34-16.29-145.24-5.19-33.4-11.39-66.42-12.18-100.69-.98-47.53,17.21-74.57,67.74-57.78,16.07,5.3,31,12.87,45.71,20.95,0,0-.65,1.37-.65,1.37h0Z"/>
    <path class="cls-1" d="m0,25.95C54.21-4.3,114.92-24.45,113.45,62.78c-1.62,50.75-13.1,99.78-19.8,149.65-8.3,61.86-15.92,125.65,2.59,185.32,20.37,64.39,74.99,87.88,139.39,93.18,22.39,1.87,44.47,1.65,67.16.15,0,0-.18,102.34-.18,102.34-24.69-1.48-50.13-4.43-74.7-9.31-95.36-18.59-175.32-69.69-194.28-170.75-15.58-87.68,11.61-174.44,35.44-257.2,9.02-31.31,19.2-62.92,24.02-94.83,1.85-15.63,4.7-39.96-11.84-47.72-16.53-7.04-40.47.07-57.28,5.23-7.84,2.54-15.61,5.43-23.31,8.49l-.65-1.37h0Z"/>
  </g>
</svg>