<?xml version="1.0" encoding="UTF-8"?>
<svg id="Layer_2" data-name="Layer 2" xmlns="http://www.w3.org/2000/svg" viewBox="0 0 662.99 796.83">
  <defs>
    <style>
      .cls-1 {
        fill: none;
        stroke: #231f20;
        stroke-linecap: round;
        stroke-miterlimit: 10;
        stroke-width: 60px;
      }

      .cls-2 {
        fill: #231f20;
        stroke-width: 0px;
      }
    </style>
  </defs>
  <g id="Divination">
    <path class="cls-1" d="m30,587.8c0,97.01,29.85,179.03,92.29,179.03,161.44.09-92.29-537.23,510.7-511.86"/>
    <path class="cls-2" d="m249.27,363.38c-3.1-102.47,20.66-210.7,126.15-252.42,30.03-12.31,63.95-17.94,94.22-21.33,18.22-2.08,49.91-4.67,66.59-8.87,5.99-1.57,10.42-2.93,14.54-5.63,1.02-.77,1.24-.93,1.61-1.61.04-.07.06-.19.11-.28-.02,0-.05.08-.09.11-.2.14-1.9-.23-1.95-.6-.37-.67-.7-1.52-1.21-2.08-.43-.51-1.14-1.13-1.57-.7-.24.33,0,.74-.64.87-3.81.36-9.07,1.68-13.91,3.71-18.78,7.46-40.05-1.72-47.51-20.5-7.82-19.48,2.64-41.79,22.6-48.27,22.69-7.77,50.9-8.92,72.64,4.2,15.04,8.69,26.37,23.76,30.98,40.29,1.49,5.23,2.38,10.54,2.68,15.95.24,5.57.24,11.17-1.66,16.6-1.41,4.07-3.12,8.54-4.67,12.69-9.68,24.88-33.66,37.72-57.7,43.27-45.29,10.13-95.51,8.03-138.55,21.73-78.99,22.73-100.45,92.79-102.85,167.5-.36,11.1-.26,22.31.15,33.56-.11,39.9-57.29,41.96-59.97,1.81h0Z"/>
  </g>
</svg>