<?xml version="1.0" encoding="UTF-8"?>
<svg id="Layer_2" data-name="Layer 2" xmlns="http://www.w3.org/2000/svg" viewBox="0 0 958.16 448.83">
  <defs>
    <style>
      .cls-1 {
        stroke: #231f20;
        stroke-linecap: round;
        stroke-miterlimit: 10;
      }

      .cls-1, .cls-2 {
        fill: #231f20;
      }

      .cls-2 {
        stroke-width: 0px;
      }
    </style>
  </defs>
  <g id="Illustion">
    <path class="cls-2" d="m0,300.69c51.4-72.86,113.95-138.13,185.36-191.7C320.55,6.94,478.13-29.37,640.95,25.51c62,19.89,119.52,55.4,170.8,93.16,17.88,12.36,34.8,25,54.17,32.93,6.19,2.17,9.8,3.53,15.51,2.99,6.21-.83,13.25-7.66,17.76-12.49,18.75-19.32,25.47-39.75,14.71-65.09-7.09-17.06-18.12-31.01-30.32-45.56,12.09,4.51,23.81,10.39,34.82,18.21,47.23,33.5,50.1,84.3,20.64,131.48-26.43,41.34-69.27,46.72-112.51,31.62-19.89-6.73-39.08-16.48-56.75-25.91-54.13-28.83-102.13-62.12-157.27-86.6-20.87-9.19-42.38-16.56-64.62-21.45C354.52,36.62,149.17,193.24,0,300.69h0Z"/>
    <path class="cls-2" d="m385.87,53.4c12.15,35.64,37.18,109.1,80.49,111.69,36.53,1.06,72.6-38.42,84.65-71.18,3.05-8.49,5.01-16.61,5.11-25.23.18-4.12-.5-8.44-.66-12.5-1.57-34.88,45.98-44.25,57.98-11.81,14.93,42.62.78,89.67-23.89,125.52-49.23,71.65-143.46,100.53-207.96,30.64-25.77-28.4-39.91-63.84-48.43-100.45-2.58-11.2-4.5-22.53-5.91-33.91-3.47-36.58,46.76-47.18,58.63-12.76h0Z"/>
    <path class="cls-2" d="m766.37,188.53c-20.15,35.31-46.89,65.01-76.89,91.9-6.35,5.42-13.72,11.45-20.25,16.67-7.35,5.52-16.17,12-23.77,17.12-129.48,86.75-294.43,94.28-426.61,8.17-32.79-21.32-62.44-47.51-87.2-77.81-5.26-6.73-10.51-13.53-15.21-20.89-1.14-1.75-.64-4.1,1.11-5.24,1.17-.76,2.61-.79,3.78-.2,0,0,19.15,9.7,19.15,9.7,128.07,64.29,246.99,97.61,389.34,60.39,7.93-1.88,17.71-4.97,25.53-7.27,5.81-1.73,14.42-4.83,20.17-6.73,52.05-18.26,101.82-42.91,149.55-70.56,11.4-6.42,25.66-15.26,36.9-21.94,1.8-1.08,4.14-.5,5.22,1.3.73,1.21.7,2.67.05,3.83,0,0-.89,1.56-.89,1.56h0Z"/>
    <polygon class="cls-1" points="164.18 259.81 143.28 350.19 221.05 300.69 164.18 259.81"/>
    <polygon class="cls-1" points="258.48 316.94 263.56 406.5 317.75 331.92 258.48 316.94"/>
    <polygon class="cls-1" points="354.7 347.09 367.7 435.85 415.06 356.76 354.7 347.09"/>
    <polygon class="cls-1" points="438.79 361.72 465.51 447.35 499.92 361.82 438.79 361.72"/>
    <polygon class="cls-1" points="533.2 361.58 581.39 437.24 592.23 345.7 533.2 361.58"/>
    <polygon class="cls-1" points="602.86 326.43 671.04 384.73 654.69 294.01 602.86 326.43"/>
    <polygon class="cls-1" points="682.8 248.04 764.18 312.33 750.17 210.7 682.8 248.04"/>
  </g>
</svg>