<?xml version="1.0" encoding="UTF-8"?>
<svg id="Layer_2" data-name="Layer 2" xmlns="http://www.w3.org/2000/svg" viewBox="0 0 696.41 648.56">
  <defs>
    <style>
      .cls-1 {
        stroke-width: 1.97px;
      }

      .cls-1, .cls-2, .cls-3, .cls-4, .cls-5 {
        stroke: #231f20;
        stroke-miterlimit: 10;
      }

      .cls-1, .cls-2, .cls-3, .cls-6 {
        fill: #231f20;
      }

      .cls-2 {
        stroke-width: 20.39px;
      }

      .cls-4 {
        stroke-width: 66px;
      }

      .cls-4, .cls-5 {
        fill: none;
      }

      .cls-6 {
        stroke-width: 0px;
      }

      .cls-5 {
        stroke-width: 60px;
      }
    </style>
  </defs>
  <g id="Transmutation">
    <line class="cls-4" x1="424.42" y1="618.08" x2="424.42" y2="3.16"/>
    <line class="cls-5" x1="158.75" y1="421.07" x2="158.75" y2="30.02"/>
    <line class="cls-5" x1="61.73" y1="30.02" x2="564.72" y2="30.02"/>
    <path class="cls-2" d="m105.3,502.04l30.17-70.89,43.05-.2v191.48l-64.33-69.92c-12.56-13.65-16.03-33.35-8.9-50.47Z"/>
    <polygon class="cls-3" points="61.23 1.23 1.23 59.52 61.23 59.52 61.23 1.23"/>
    <polygon class="cls-1" points="423.1 543.45 355.85 618.08 490.35 618.08 423.1 543.45"/>
    <path class="cls-6" d="m564.72.02c16.77.25,34.17,4.49,48.06,15.17,20.22,15.07,28.86,41.96,24.59,66.19-3.86,23.79-20.05,43.19-35.25,59.31-6.56,7.01-19.9,19.91-24.94,27.54-.65.99-.62,1.17-.49.21.1-.54.17-2.01.06-2.75.04,1.47.17,2.96.49,4.39,2.76,11.68,13.17,18.54,26.16,20.69,9.28,1.44,19.51-.17,29.03-4.58,9.57-4.37,18.46-11.58,26.05-20.62,7.54-9.22,21.2-10.51,30.32-2.85,8.77,7.36,10.12,20.29,3.3,29.32-5.12,6.75-10.89,13.19-17.48,19.01-27.4,25.07-69.88,35.42-104.97,18.91-20.39-9.15-37.25-28.34-42.05-50.83-3.1-13.14-1.75-24.09,4.51-35.72,11.23-20.35,29.14-35.15,41.6-53.5,3.23-4.71,5.65-9.22,6.82-12.72.98-2.92,1.22-5.65.85-8.6-.43-2.79-1.23-5.18-3.56-6.49-3.7-1.85-7.13-2.18-13.08-2.1-16.57.62-30.5-12.31-31.12-28.88-.72-17.36,13.77-31.82,31.12-31.12h0Z"/>
  </g>
</svg>